<mxfile host="Electron" agent="Mozilla/5.0 (Macintosh; Intel Mac OS X 10_15_7) AppleWebKit/537.36 (KHTML, like Gecko) draw.io/26.0.16 Chrome/132.0.6834.196 Electron/34.2.0 Safari/537.36" version="26.0.16" pages="4">
  <diagram name="Main" id="ciMXtin28pvy9Z-R5EFE">
    <mxGraphModel dx="2074" dy="1214" grid="1" gridSize="10" guides="1" tooltips="1" connect="1" arrows="1" fold="1" page="1" pageScale="1" pageWidth="1100" pageHeight="850" math="0" shadow="0">
      <root>
        <mxCell id="0" />
        <mxCell id="1" parent="0" />
        <mxCell id="xK0dbAxCh4vP_NzFNWeG-3" style="edgeStyle=orthogonalEdgeStyle;rounded=0;orthogonalLoop=1;jettySize=auto;html=1;exitX=0.5;exitY=1;exitDx=0;exitDy=0;entryX=0.5;entryY=0;entryDx=0;entryDy=0;" parent="1" source="cemaSmMLVrujW-6_Jvu3-1" target="cemaSmMLVrujW-6_Jvu3-2" edge="1">
          <mxGeometry relative="1" as="geometry" />
        </mxCell>
        <mxCell id="xK0dbAxCh4vP_NzFNWeG-5" style="edgeStyle=orthogonalEdgeStyle;rounded=0;orthogonalLoop=1;jettySize=auto;html=1;exitX=0.5;exitY=1;exitDx=0;exitDy=0;entryX=0.5;entryY=0;entryDx=0;entryDy=0;" parent="1" source="cemaSmMLVrujW-6_Jvu3-1" target="cemaSmMLVrujW-6_Jvu3-3" edge="1">
          <mxGeometry relative="1" as="geometry" />
        </mxCell>
        <mxCell id="xK0dbAxCh4vP_NzFNWeG-6" style="edgeStyle=orthogonalEdgeStyle;rounded=0;orthogonalLoop=1;jettySize=auto;html=1;exitX=0.5;exitY=1;exitDx=0;exitDy=0;entryX=0.5;entryY=0;entryDx=0;entryDy=0;" parent="1" source="cemaSmMLVrujW-6_Jvu3-1" target="xK0dbAxCh4vP_NzFNWeG-1" edge="1">
          <mxGeometry relative="1" as="geometry" />
        </mxCell>
        <mxCell id="cemaSmMLVrujW-6_Jvu3-1" value="Covid models" style="rounded=1;whiteSpace=wrap;html=1;fillColor=#f8cecc;strokeColor=#b85450;" parent="1" vertex="1">
          <mxGeometry x="540" y="258" width="120" height="60" as="geometry" />
        </mxCell>
        <mxCell id="cemaSmMLVrujW-6_Jvu3-9" style="edgeStyle=orthogonalEdgeStyle;rounded=0;orthogonalLoop=1;jettySize=auto;html=1;exitX=0.5;exitY=1;exitDx=0;exitDy=0;entryX=0.5;entryY=0;entryDx=0;entryDy=0;" parent="1" source="cemaSmMLVrujW-6_Jvu3-2" target="cemaSmMLVrujW-6_Jvu3-6" edge="1">
          <mxGeometry relative="1" as="geometry" />
        </mxCell>
        <mxCell id="cemaSmMLVrujW-6_Jvu3-10" style="edgeStyle=orthogonalEdgeStyle;rounded=0;orthogonalLoop=1;jettySize=auto;html=1;exitX=0.5;exitY=1;exitDx=0;exitDy=0;entryX=0.5;entryY=0;entryDx=0;entryDy=0;" parent="1" source="cemaSmMLVrujW-6_Jvu3-2" target="cemaSmMLVrujW-6_Jvu3-7" edge="1">
          <mxGeometry relative="1" as="geometry" />
        </mxCell>
        <mxCell id="cemaSmMLVrujW-6_Jvu3-2" value="Supervised&amp;nbsp;&lt;div&gt;models&lt;/div&gt;" style="rounded=1;whiteSpace=wrap;html=1;fillColor=#ffe6cc;strokeColor=#d79b00;" parent="1" vertex="1">
          <mxGeometry x="165" y="388" width="120" height="60" as="geometry" />
        </mxCell>
        <mxCell id="cemaSmMLVrujW-6_Jvu3-13" style="edgeStyle=orthogonalEdgeStyle;rounded=0;orthogonalLoop=1;jettySize=auto;html=1;exitX=0.5;exitY=1;exitDx=0;exitDy=0;entryX=0.5;entryY=0;entryDx=0;entryDy=0;" parent="1" source="cemaSmMLVrujW-6_Jvu3-3" target="cemaSmMLVrujW-6_Jvu3-11" edge="1">
          <mxGeometry relative="1" as="geometry" />
        </mxCell>
        <mxCell id="cemaSmMLVrujW-6_Jvu3-14" style="edgeStyle=orthogonalEdgeStyle;rounded=0;orthogonalLoop=1;jettySize=auto;html=1;exitX=0.5;exitY=1;exitDx=0;exitDy=0;" parent="1" source="cemaSmMLVrujW-6_Jvu3-3" target="cemaSmMLVrujW-6_Jvu3-12" edge="1">
          <mxGeometry relative="1" as="geometry" />
        </mxCell>
        <mxCell id="cemaSmMLVrujW-6_Jvu3-3" value="Unsupervised&amp;nbsp;&lt;div&gt;models&lt;/div&gt;" style="rounded=1;whiteSpace=wrap;html=1;fillColor=#d5e8d4;strokeColor=#82b366;" parent="1" vertex="1">
          <mxGeometry x="540" y="388" width="120" height="60" as="geometry" />
        </mxCell>
        <mxCell id="cemaSmMLVrujW-6_Jvu3-6" value="Basic models" style="rounded=1;whiteSpace=wrap;html=1;fillColor=#f5f5f5;strokeColor=#666666;fontColor=#333333;" parent="1" vertex="1">
          <mxGeometry x="75" y="533" width="120" height="60" as="geometry" />
        </mxCell>
        <mxCell id="cemaSmMLVrujW-6_Jvu3-7" value="Advanced models" style="rounded=1;whiteSpace=wrap;html=1;fillColor=#dae8fc;strokeColor=#6c8ebf;" parent="1" vertex="1">
          <mxGeometry x="255" y="533" width="120" height="60" as="geometry" />
        </mxCell>
        <mxCell id="cemaSmMLVrujW-6_Jvu3-11" value="Basic models" style="rounded=1;whiteSpace=wrap;html=1;fillColor=#f5f5f5;fontColor=#333333;strokeColor=#666666;" parent="1" vertex="1">
          <mxGeometry x="450" y="533" width="120" height="60" as="geometry" />
        </mxCell>
        <mxCell id="cemaSmMLVrujW-6_Jvu3-12" value="Advanced models" style="rounded=1;whiteSpace=wrap;html=1;fillColor=#dae8fc;strokeColor=#6c8ebf;" parent="1" vertex="1">
          <mxGeometry x="630" y="533" width="120" height="60" as="geometry" />
        </mxCell>
        <mxCell id="xK0dbAxCh4vP_NzFNWeG-1" value="Covid specific models" style="rounded=1;whiteSpace=wrap;html=1;fillColor=#bac8d3;strokeColor=#23445d;" parent="1" vertex="1">
          <mxGeometry x="905" y="388" width="120" height="60" as="geometry" />
        </mxCell>
      </root>
    </mxGraphModel>
  </diagram>
  <diagram id="qT8ImLPaNErWYpZOO_7_" name="Supervised models">
    <mxGraphModel dx="1026" dy="663" grid="1" gridSize="10" guides="1" tooltips="1" connect="1" arrows="1" fold="1" page="1" pageScale="1" pageWidth="1100" pageHeight="850" math="0" shadow="0">
      <root>
        <mxCell id="0" />
        <mxCell id="1" parent="0" />
        <mxCell id="yNRg12sICpPYoYdfjsNc-1" style="edgeStyle=orthogonalEdgeStyle;rounded=0;orthogonalLoop=1;jettySize=auto;html=1;exitX=0.5;exitY=1;exitDx=0;exitDy=0;entryX=0.5;entryY=0;entryDx=0;entryDy=0;" parent="1" source="yNRg12sICpPYoYdfjsNc-3" target="yNRg12sICpPYoYdfjsNc-4" edge="1">
          <mxGeometry relative="1" as="geometry" />
        </mxCell>
        <mxCell id="yNRg12sICpPYoYdfjsNc-2" style="edgeStyle=orthogonalEdgeStyle;rounded=0;orthogonalLoop=1;jettySize=auto;html=1;exitX=0.5;exitY=1;exitDx=0;exitDy=0;entryX=0.5;entryY=0;entryDx=0;entryDy=0;" parent="1" source="yNRg12sICpPYoYdfjsNc-3" target="yNRg12sICpPYoYdfjsNc-5" edge="1">
          <mxGeometry relative="1" as="geometry" />
        </mxCell>
        <mxCell id="yNRg12sICpPYoYdfjsNc-3" value="Supervised&amp;nbsp;&lt;div&gt;models&lt;/div&gt;" style="rounded=1;whiteSpace=wrap;html=1;fillColor=#ffe6cc;strokeColor=#d79b00;" parent="1" vertex="1">
          <mxGeometry x="490" y="80" width="120" height="60" as="geometry" />
        </mxCell>
        <mxCell id="yNRg12sICpPYoYdfjsNc-7" style="edgeStyle=orthogonalEdgeStyle;rounded=0;orthogonalLoop=1;jettySize=auto;html=1;exitX=0.5;exitY=1;exitDx=0;exitDy=0;" parent="1" source="yNRg12sICpPYoYdfjsNc-4" target="yNRg12sICpPYoYdfjsNc-6" edge="1">
          <mxGeometry relative="1" as="geometry" />
        </mxCell>
        <mxCell id="yNRg12sICpPYoYdfjsNc-10" style="edgeStyle=orthogonalEdgeStyle;rounded=0;orthogonalLoop=1;jettySize=auto;html=1;exitX=0.5;exitY=1;exitDx=0;exitDy=0;entryX=0.5;entryY=0;entryDx=0;entryDy=0;" parent="1" source="yNRg12sICpPYoYdfjsNc-4" target="yNRg12sICpPYoYdfjsNc-8" edge="1">
          <mxGeometry relative="1" as="geometry" />
        </mxCell>
        <mxCell id="yNRg12sICpPYoYdfjsNc-11" style="edgeStyle=orthogonalEdgeStyle;rounded=0;orthogonalLoop=1;jettySize=auto;html=1;exitX=0.5;exitY=1;exitDx=0;exitDy=0;" parent="1" source="yNRg12sICpPYoYdfjsNc-4" target="yNRg12sICpPYoYdfjsNc-9" edge="1">
          <mxGeometry relative="1" as="geometry" />
        </mxCell>
        <mxCell id="yNRg12sICpPYoYdfjsNc-4" value="Basic models" style="rounded=1;whiteSpace=wrap;html=1;fillColor=#f5f5f5;strokeColor=#666666;fontColor=#333333;" parent="1" vertex="1">
          <mxGeometry x="255" y="235" width="120" height="60" as="geometry" />
        </mxCell>
        <mxCell id="yNRg12sICpPYoYdfjsNc-15" style="edgeStyle=orthogonalEdgeStyle;rounded=0;orthogonalLoop=1;jettySize=auto;html=1;exitX=0.5;exitY=1;exitDx=0;exitDy=0;entryX=0.5;entryY=0;entryDx=0;entryDy=0;" parent="1" source="yNRg12sICpPYoYdfjsNc-5" target="yNRg12sICpPYoYdfjsNc-12" edge="1">
          <mxGeometry relative="1" as="geometry" />
        </mxCell>
        <mxCell id="yNRg12sICpPYoYdfjsNc-16" style="edgeStyle=orthogonalEdgeStyle;rounded=0;orthogonalLoop=1;jettySize=auto;html=1;exitX=0.5;exitY=1;exitDx=0;exitDy=0;entryX=0.5;entryY=0;entryDx=0;entryDy=0;" parent="1" source="yNRg12sICpPYoYdfjsNc-5" target="yNRg12sICpPYoYdfjsNc-13" edge="1">
          <mxGeometry relative="1" as="geometry" />
        </mxCell>
        <mxCell id="yNRg12sICpPYoYdfjsNc-17" style="edgeStyle=orthogonalEdgeStyle;rounded=0;orthogonalLoop=1;jettySize=auto;html=1;exitX=0.5;exitY=1;exitDx=0;exitDy=0;entryX=0.5;entryY=0;entryDx=0;entryDy=0;" parent="1" source="yNRg12sICpPYoYdfjsNc-5" target="yNRg12sICpPYoYdfjsNc-14" edge="1">
          <mxGeometry relative="1" as="geometry" />
        </mxCell>
        <mxCell id="yNRg12sICpPYoYdfjsNc-5" value="Advanced models" style="rounded=1;whiteSpace=wrap;html=1;fillColor=#dae8fc;strokeColor=#6c8ebf;" parent="1" vertex="1">
          <mxGeometry x="725" y="235" width="120" height="60" as="geometry" />
        </mxCell>
        <mxCell id="yNRg12sICpPYoYdfjsNc-6" value="Support Vector Machies" style="rounded=1;whiteSpace=wrap;html=1;" parent="1" vertex="1">
          <mxGeometry x="105" y="395" width="120" height="60" as="geometry" />
        </mxCell>
        <mxCell id="yNRg12sICpPYoYdfjsNc-8" value="Logistic Regression" style="rounded=1;whiteSpace=wrap;html=1;" parent="1" vertex="1">
          <mxGeometry x="255" y="395" width="120" height="60" as="geometry" />
        </mxCell>
        <mxCell id="yNRg12sICpPYoYdfjsNc-9" value="&lt;p style=&quot;margin: 0px; font-variant-numeric: normal; font-variant-east-asian: normal; font-variant-alternates: normal; font-size-adjust: none; font-kerning: auto; font-optical-sizing: auto; font-feature-settings: normal; font-variation-settings: normal; font-variant-position: normal; font-stretch: normal; font-size: 13px; line-height: normal; font-family: &amp;quot;Helvetica Neue&amp;quot;; text-align: start;&quot; class=&quot;p1&quot;&gt;Random Forest&lt;/p&gt;" style="rounded=1;whiteSpace=wrap;html=1;" parent="1" vertex="1">
          <mxGeometry x="405" y="395" width="120" height="60" as="geometry" />
        </mxCell>
        <mxCell id="yNRg12sICpPYoYdfjsNc-12" value="Convolutional Neural Networks" style="rounded=1;whiteSpace=wrap;html=1;" parent="1" vertex="1">
          <mxGeometry x="575" y="395" width="120" height="60" as="geometry" />
        </mxCell>
        <mxCell id="yNRg12sICpPYoYdfjsNc-13" value="Transfer learning-based models" style="rounded=1;whiteSpace=wrap;html=1;" parent="1" vertex="1">
          <mxGeometry x="725" y="395" width="120" height="60" as="geometry" />
        </mxCell>
        <mxCell id="yNRg12sICpPYoYdfjsNc-14" value="Capsule Networks" style="rounded=1;whiteSpace=wrap;html=1;" parent="1" vertex="1">
          <mxGeometry x="875" y="395" width="120" height="60" as="geometry" />
        </mxCell>
        <mxCell id="-A6RMDFo_6YCGbnqH9uz-1" value="Features" style="swimlane;fontStyle=0;childLayout=stackLayout;horizontal=1;startSize=30;horizontalStack=0;resizeParent=1;resizeParentMax=0;resizeLast=0;collapsible=1;marginBottom=0;whiteSpace=wrap;html=1;fillColor=#e1d5e7;strokeColor=#9673a6;" vertex="1" parent="1">
          <mxGeometry x="95" y="590" width="140" height="150" as="geometry" />
        </mxCell>
        <mxCell id="-A6RMDFo_6YCGbnqH9uz-2" value="Descriptive statistics" style="text;strokeColor=none;fillColor=none;align=left;verticalAlign=middle;spacingLeft=4;spacingRight=4;overflow=hidden;points=[[0,0.5],[1,0.5]];portConstraint=eastwest;rotatable=0;whiteSpace=wrap;html=1;" vertex="1" parent="-A6RMDFo_6YCGbnqH9uz-1">
          <mxGeometry y="30" width="140" height="30" as="geometry" />
        </mxCell>
        <mxCell id="-A6RMDFo_6YCGbnqH9uz-3" value="Histogram" style="text;strokeColor=none;fillColor=none;align=left;verticalAlign=middle;spacingLeft=4;spacingRight=4;overflow=hidden;points=[[0,0.5],[1,0.5]];portConstraint=eastwest;rotatable=0;whiteSpace=wrap;html=1;" vertex="1" parent="-A6RMDFo_6YCGbnqH9uz-1">
          <mxGeometry y="60" width="140" height="30" as="geometry" />
        </mxCell>
        <mxCell id="-A6RMDFo_6YCGbnqH9uz-4" value="Edges" style="text;strokeColor=none;fillColor=none;align=left;verticalAlign=middle;spacingLeft=4;spacingRight=4;overflow=hidden;points=[[0,0.5],[1,0.5]];portConstraint=eastwest;rotatable=0;whiteSpace=wrap;html=1;" vertex="1" parent="-A6RMDFo_6YCGbnqH9uz-1">
          <mxGeometry y="90" width="140" height="30" as="geometry" />
        </mxCell>
        <mxCell id="-A6RMDFo_6YCGbnqH9uz-5" value="GLCM" style="text;strokeColor=none;fillColor=none;align=left;verticalAlign=middle;spacingLeft=4;spacingRight=4;overflow=hidden;points=[[0,0.5],[1,0.5]];portConstraint=eastwest;rotatable=0;whiteSpace=wrap;html=1;" vertex="1" parent="-A6RMDFo_6YCGbnqH9uz-1">
          <mxGeometry y="120" width="140" height="30" as="geometry" />
        </mxCell>
      </root>
    </mxGraphModel>
  </diagram>
  <diagram id="udMlE-Of8WtaY1VjiE_j" name="Unsupervised models">
    <mxGraphModel dx="1026" dy="663" grid="1" gridSize="10" guides="1" tooltips="1" connect="1" arrows="1" fold="1" page="1" pageScale="1" pageWidth="1100" pageHeight="850" math="0" shadow="0">
      <root>
        <mxCell id="0" />
        <mxCell id="1" parent="0" />
        <mxCell id="m_voU1Ds3c9K4e713G8o-1" style="edgeStyle=orthogonalEdgeStyle;rounded=0;orthogonalLoop=1;jettySize=auto;html=1;exitX=0.5;exitY=1;exitDx=0;exitDy=0;entryX=0.5;entryY=0;entryDx=0;entryDy=0;" edge="1" parent="1" source="m_voU1Ds3c9K4e713G8o-3" target="m_voU1Ds3c9K4e713G8o-7">
          <mxGeometry relative="1" as="geometry" />
        </mxCell>
        <mxCell id="m_voU1Ds3c9K4e713G8o-2" style="edgeStyle=orthogonalEdgeStyle;rounded=0;orthogonalLoop=1;jettySize=auto;html=1;exitX=0.5;exitY=1;exitDx=0;exitDy=0;entryX=0.5;entryY=0;entryDx=0;entryDy=0;" edge="1" parent="1" source="m_voU1Ds3c9K4e713G8o-3" target="m_voU1Ds3c9K4e713G8o-11">
          <mxGeometry relative="1" as="geometry" />
        </mxCell>
        <mxCell id="m_voU1Ds3c9K4e713G8o-3" value="Unsupervised&amp;nbsp;&lt;div&gt;models&lt;/div&gt;" style="rounded=1;whiteSpace=wrap;html=1;fillColor=#d5e8d4;strokeColor=#82b366;" vertex="1" parent="1">
          <mxGeometry x="490" y="238" width="120" height="60" as="geometry" />
        </mxCell>
        <mxCell id="m_voU1Ds3c9K4e713G8o-4" style="edgeStyle=orthogonalEdgeStyle;rounded=0;orthogonalLoop=1;jettySize=auto;html=1;exitX=0.5;exitY=1;exitDx=0;exitDy=0;" edge="1" parent="1" source="m_voU1Ds3c9K4e713G8o-7" target="m_voU1Ds3c9K4e713G8o-12">
          <mxGeometry relative="1" as="geometry" />
        </mxCell>
        <mxCell id="m_voU1Ds3c9K4e713G8o-5" style="edgeStyle=orthogonalEdgeStyle;rounded=0;orthogonalLoop=1;jettySize=auto;html=1;exitX=0.5;exitY=1;exitDx=0;exitDy=0;entryX=0.5;entryY=0;entryDx=0;entryDy=0;" edge="1" parent="1" source="m_voU1Ds3c9K4e713G8o-7" target="m_voU1Ds3c9K4e713G8o-13">
          <mxGeometry relative="1" as="geometry" />
        </mxCell>
        <mxCell id="m_voU1Ds3c9K4e713G8o-6" style="edgeStyle=orthogonalEdgeStyle;rounded=0;orthogonalLoop=1;jettySize=auto;html=1;exitX=0.5;exitY=1;exitDx=0;exitDy=0;" edge="1" parent="1" source="m_voU1Ds3c9K4e713G8o-7" target="m_voU1Ds3c9K4e713G8o-14">
          <mxGeometry relative="1" as="geometry" />
        </mxCell>
        <mxCell id="m_voU1Ds3c9K4e713G8o-7" value="Basic models" style="rounded=1;whiteSpace=wrap;html=1;fillColor=#f5f5f5;strokeColor=#666666;fontColor=#333333;" vertex="1" parent="1">
          <mxGeometry x="255" y="393" width="120" height="60" as="geometry" />
        </mxCell>
        <mxCell id="m_voU1Ds3c9K4e713G8o-8" style="edgeStyle=orthogonalEdgeStyle;rounded=0;orthogonalLoop=1;jettySize=auto;html=1;exitX=0.5;exitY=1;exitDx=0;exitDy=0;entryX=0.5;entryY=0;entryDx=0;entryDy=0;" edge="1" parent="1" source="m_voU1Ds3c9K4e713G8o-11" target="m_voU1Ds3c9K4e713G8o-15">
          <mxGeometry relative="1" as="geometry" />
        </mxCell>
        <mxCell id="m_voU1Ds3c9K4e713G8o-9" style="edgeStyle=orthogonalEdgeStyle;rounded=0;orthogonalLoop=1;jettySize=auto;html=1;exitX=0.5;exitY=1;exitDx=0;exitDy=0;entryX=0.5;entryY=0;entryDx=0;entryDy=0;" edge="1" parent="1" source="m_voU1Ds3c9K4e713G8o-11" target="m_voU1Ds3c9K4e713G8o-16">
          <mxGeometry relative="1" as="geometry" />
        </mxCell>
        <mxCell id="m_voU1Ds3c9K4e713G8o-10" style="edgeStyle=orthogonalEdgeStyle;rounded=0;orthogonalLoop=1;jettySize=auto;html=1;exitX=0.5;exitY=1;exitDx=0;exitDy=0;entryX=0.5;entryY=0;entryDx=0;entryDy=0;" edge="1" parent="1" source="m_voU1Ds3c9K4e713G8o-11" target="m_voU1Ds3c9K4e713G8o-17">
          <mxGeometry relative="1" as="geometry" />
        </mxCell>
        <mxCell id="m_voU1Ds3c9K4e713G8o-11" value="Advanced models" style="rounded=1;whiteSpace=wrap;html=1;fillColor=#dae8fc;strokeColor=#6c8ebf;" vertex="1" parent="1">
          <mxGeometry x="725" y="393" width="120" height="60" as="geometry" />
        </mxCell>
        <mxCell id="m_voU1Ds3c9K4e713G8o-12" value="K-Means clustering" style="rounded=1;whiteSpace=wrap;html=1;" vertex="1" parent="1">
          <mxGeometry x="105" y="553" width="120" height="60" as="geometry" />
        </mxCell>
        <mxCell id="m_voU1Ds3c9K4e713G8o-13" value="Principal Component Analysis" style="rounded=1;whiteSpace=wrap;html=1;" vertex="1" parent="1">
          <mxGeometry x="255" y="553" width="120" height="60" as="geometry" />
        </mxCell>
        <mxCell id="m_voU1Ds3c9K4e713G8o-14" value="&lt;p style=&quot;margin: 0px; font-variant-numeric: normal; font-variant-east-asian: normal; font-variant-alternates: normal; font-size-adjust: none; font-kerning: auto; font-optical-sizing: auto; font-feature-settings: normal; font-variation-settings: normal; font-variant-position: normal; font-stretch: normal; font-size: 13px; line-height: normal; font-family: &amp;quot;Helvetica Neue&amp;quot;; text-align: start;&quot; class=&quot;p1&quot;&gt;Auto-encoders&lt;br&gt;&lt;/p&gt;" style="rounded=1;whiteSpace=wrap;html=1;" vertex="1" parent="1">
          <mxGeometry x="405" y="553" width="120" height="60" as="geometry" />
        </mxCell>
        <mxCell id="m_voU1Ds3c9K4e713G8o-15" value="Convolutional Neural Networks" style="rounded=1;whiteSpace=wrap;html=1;" vertex="1" parent="1">
          <mxGeometry x="575" y="553" width="120" height="60" as="geometry" />
        </mxCell>
        <mxCell id="m_voU1Ds3c9K4e713G8o-16" value="Graph-based models" style="rounded=1;whiteSpace=wrap;html=1;" vertex="1" parent="1">
          <mxGeometry x="725" y="553" width="120" height="60" as="geometry" />
        </mxCell>
        <mxCell id="m_voU1Ds3c9K4e713G8o-17" value="Deep&amp;nbsp;&lt;span style=&quot;font-family: &amp;quot;Helvetica Neue&amp;quot;; font-size: 13px; text-align: start;&quot;&gt;Auto-encoders&lt;/span&gt;" style="rounded=1;whiteSpace=wrap;html=1;" vertex="1" parent="1">
          <mxGeometry x="875" y="553" width="120" height="60" as="geometry" />
        </mxCell>
      </root>
    </mxGraphModel>
  </diagram>
  <diagram id="aogHjLmU0naKM6DMxWx2" name="Roadmap">
    <mxGraphModel dx="1430" dy="837" grid="1" gridSize="10" guides="1" tooltips="1" connect="1" arrows="1" fold="1" page="1" pageScale="1" pageWidth="1100" pageHeight="850" math="0" shadow="0">
      <root>
        <mxCell id="0" />
        <mxCell id="1" parent="0" />
        <mxCell id="40lD1EmkbBOR3VWzuAHx-75" value="" style="rounded=0;whiteSpace=wrap;html=1;" parent="1" vertex="1">
          <mxGeometry x="150" y="25" width="800" height="800" as="geometry" />
        </mxCell>
        <mxCell id="40lD1EmkbBOR3VWzuAHx-21" value="" style="endArrow=none;html=1;strokeWidth=3;strokeColor=#CCCCCC;labelBackgroundColor=none;fontSize=16;rounded=0;" parent="1" source="40lD1EmkbBOR3VWzuAHx-22" target="40lD1EmkbBOR3VWzuAHx-23" edge="1">
          <mxGeometry relative="1" as="geometry" />
        </mxCell>
        <mxCell id="40lD1EmkbBOR3VWzuAHx-22" value="" style="ellipse;whiteSpace=wrap;html=1;aspect=fixed;shadow=0;fillColor=none;strokeColor=#333333;fontSize=16;align=center;strokeWidth=2;" parent="1" vertex="1">
          <mxGeometry x="539" y="120" width="12" height="12" as="geometry" />
        </mxCell>
        <mxCell id="40lD1EmkbBOR3VWzuAHx-23" value="" style="ellipse;whiteSpace=wrap;html=1;aspect=fixed;shadow=0;fillColor=none;strokeColor=#333333;fontSize=16;align=center;strokeWidth=2;" parent="1" vertex="1">
          <mxGeometry x="539" y="618" width="12" height="12" as="geometry" />
        </mxCell>
        <mxCell id="40lD1EmkbBOR3VWzuAHx-24" value="" style="verticalLabelPosition=middle;verticalAlign=middle;html=1;shape=mxgraph.infographic.circularCallout2;dy=15;strokeColor=#10739E;labelPosition=center;align=center;fontColor=#10739E;fontStyle=1;fontSize=24;shadow=0;direction=north;" parent="1" vertex="1">
          <mxGeometry x="305" y="150" width="246" height="60" as="geometry" />
        </mxCell>
        <mxCell id="40lD1EmkbBOR3VWzuAHx-25" value="" style="verticalLabelPosition=middle;verticalAlign=middle;html=1;shape=mxgraph.infographic.circularCallout2;dy=15;strokeColor=#F2931E;labelPosition=center;align=center;fontColor=#F2931E;fontStyle=1;fontSize=24;shadow=0;direction=north;flipH=1;" parent="1" vertex="1">
          <mxGeometry x="539" y="220" width="246" height="60" as="geometry" />
        </mxCell>
        <mxCell id="40lD1EmkbBOR3VWzuAHx-26" value="" style="verticalLabelPosition=middle;verticalAlign=middle;html=1;shape=mxgraph.infographic.circularCallout2;dy=15;strokeColor=#AE4132;labelPosition=center;align=center;fontColor=#10739E;fontStyle=1;fontSize=24;shadow=0;direction=north;" parent="1" vertex="1">
          <mxGeometry x="305" y="290" width="246" height="60" as="geometry" />
        </mxCell>
        <mxCell id="40lD1EmkbBOR3VWzuAHx-27" value="" style="verticalLabelPosition=middle;verticalAlign=middle;html=1;shape=mxgraph.infographic.circularCallout2;dy=15;strokeColor=#23445D;labelPosition=center;align=center;fontColor=#10739E;fontStyle=1;fontSize=24;shadow=0;direction=north;flipH=1;" parent="1" vertex="1">
          <mxGeometry x="539" y="360" width="246" height="60" as="geometry" />
        </mxCell>
        <mxCell id="40lD1EmkbBOR3VWzuAHx-28" value="" style="verticalLabelPosition=middle;verticalAlign=middle;html=1;shape=mxgraph.infographic.circularCallout2;dy=15;strokeColor=#12AAB5;labelPosition=center;align=center;fontColor=#10739E;fontStyle=1;fontSize=24;shadow=0;direction=north;" parent="1" vertex="1">
          <mxGeometry x="305" y="430" width="246" height="60" as="geometry" />
        </mxCell>
        <mxCell id="40lD1EmkbBOR3VWzuAHx-29" value="" style="verticalLabelPosition=middle;verticalAlign=middle;html=1;shape=mxgraph.infographic.circularCallout2;dy=15;strokeColor=#56517E;labelPosition=center;align=center;fontColor=#10739E;fontStyle=1;fontSize=24;shadow=0;direction=north;flipH=1;" parent="1" vertex="1">
          <mxGeometry x="539" y="500" width="246" height="60" as="geometry" />
        </mxCell>
        <mxCell id="40lD1EmkbBOR3VWzuAHx-30" value="Label" style="fillColor=#10739E;strokecolor=none;rounded=1;fontColor=#FFFFFF;strokeColor=none;fontStyle=1;fontSize=14;whiteSpace=wrap;html=1;" parent="1" vertex="1">
          <mxGeometry x="375" y="140" width="160" height="30" as="geometry" />
        </mxCell>
        <mxCell id="40lD1EmkbBOR3VWzuAHx-31" value="Label" style="fillColor=#F2931E;strokecolor=none;rounded=1;fontColor=#FFFFFF;strokeColor=none;fontStyle=1;fontSize=14;whiteSpace=wrap;html=1;" parent="1" vertex="1">
          <mxGeometry x="555" y="205" width="160" height="30" as="geometry" />
        </mxCell>
        <mxCell id="40lD1EmkbBOR3VWzuAHx-32" value="Label" style="fillColor=#AE4132;strokecolor=none;rounded=1;fontColor=#FFFFFF;strokeColor=none;fontStyle=1;fontSize=14;whiteSpace=wrap;html=1;" parent="1" vertex="1">
          <mxGeometry x="375" y="280" width="160" height="30" as="geometry" />
        </mxCell>
        <mxCell id="40lD1EmkbBOR3VWzuAHx-33" value="Label" style="fillColor=#23445D;strokecolor=none;rounded=1;fontColor=#FFFFFF;strokeColor=none;fontStyle=1;fontSize=14;whiteSpace=wrap;html=1;" parent="1" vertex="1">
          <mxGeometry x="555" y="345" width="160" height="30" as="geometry" />
        </mxCell>
        <mxCell id="40lD1EmkbBOR3VWzuAHx-34" value="Label" style="fillColor=#12AAB5;strokecolor=none;rounded=1;fontColor=#FFFFFF;strokeColor=none;fontStyle=1;fontSize=14;whiteSpace=wrap;html=1;" parent="1" vertex="1">
          <mxGeometry x="375" y="420" width="160" height="30" as="geometry" />
        </mxCell>
        <mxCell id="40lD1EmkbBOR3VWzuAHx-35" value="Label" style="fillColor=#56517E;strokecolor=none;rounded=1;fontColor=#FFFFFF;strokeColor=none;fontStyle=1;fontSize=14;whiteSpace=wrap;html=1;" parent="1" vertex="1">
          <mxGeometry x="555" y="485" width="160" height="30" as="geometry" />
        </mxCell>
        <mxCell id="40lD1EmkbBOR3VWzuAHx-36" value="&lt;font style=&quot;font-size: 10px&quot;&gt;&lt;font style=&quot;font-size: 12px&quot; color=&quot;#10739E&quot;&gt;&lt;b&gt;Label&lt;/b&gt;&lt;/font&gt;&lt;br&gt;&lt;br&gt;&lt;font size=&quot;1&quot;&gt;Lorem ipsum dolor sit amet, consectetur adipisicing elit&lt;/font&gt;&lt;/font&gt;" style="rounded=1;strokeColor=none;fillColor=#EEEEEE;align=center;arcSize=12;verticalAlign=top;whiteSpace=wrap;html=1;fontSize=12;" parent="1" vertex="1">
          <mxGeometry x="375" y="190" width="160" height="70" as="geometry" />
        </mxCell>
        <mxCell id="40lD1EmkbBOR3VWzuAHx-37" value="&lt;font style=&quot;font-size: 10px&quot;&gt;&lt;font style=&quot;font-size: 12px&quot; color=&quot;#F2931E&quot;&gt;&lt;b&gt;Label&lt;/b&gt;&lt;/font&gt;&lt;br&gt;&lt;br&gt;&lt;font size=&quot;1&quot;&gt;Lorem ipsum dolor sit amet, consectetur adipisicing elit&lt;/font&gt;&lt;/font&gt;" style="rounded=1;strokeColor=none;fillColor=#EEEEEE;align=center;arcSize=12;verticalAlign=top;whiteSpace=wrap;html=1;fontSize=12;" parent="1" vertex="1">
          <mxGeometry x="555" y="260" width="160" height="70" as="geometry" />
        </mxCell>
        <mxCell id="40lD1EmkbBOR3VWzuAHx-38" value="&lt;font style=&quot;font-size: 10px&quot;&gt;&lt;font style=&quot;font-size: 12px&quot; color=&quot;#AE4132&quot;&gt;&lt;b&gt;Label&lt;/b&gt;&lt;/font&gt;&lt;br&gt;&lt;br&gt;&lt;font size=&quot;1&quot;&gt;Lorem ipsum dolor sit amet, consectetur adipisicing elit&lt;/font&gt;&lt;/font&gt;" style="rounded=1;strokeColor=none;fillColor=#EEEEEE;align=center;arcSize=12;verticalAlign=top;whiteSpace=wrap;html=1;fontSize=12;" parent="1" vertex="1">
          <mxGeometry x="375" y="330" width="160" height="70" as="geometry" />
        </mxCell>
        <mxCell id="40lD1EmkbBOR3VWzuAHx-39" value="&lt;font style=&quot;font-size: 10px&quot;&gt;&lt;font style=&quot;font-size: 12px&quot; color=&quot;#23445D&quot;&gt;&lt;b&gt;Label&lt;/b&gt;&lt;/font&gt;&lt;br&gt;&lt;br&gt;&lt;font size=&quot;1&quot;&gt;Lorem ipsum dolor sit amet, consectetur adipisicing elit&lt;/font&gt;&lt;/font&gt;" style="rounded=1;strokeColor=none;fillColor=#EEEEEE;align=center;arcSize=12;verticalAlign=top;whiteSpace=wrap;html=1;fontSize=12;" parent="1" vertex="1">
          <mxGeometry x="555" y="400" width="160" height="70" as="geometry" />
        </mxCell>
        <mxCell id="40lD1EmkbBOR3VWzuAHx-40" value="&lt;font style=&quot;font-size: 10px&quot;&gt;&lt;font style=&quot;font-size: 12px&quot; color=&quot;#12AAB5&quot;&gt;&lt;b&gt;Label&lt;/b&gt;&lt;/font&gt;&lt;br&gt;&lt;br&gt;&lt;font size=&quot;1&quot;&gt;Lorem ipsum dolor sit amet, consectetur adipisicing elit&lt;/font&gt;&lt;/font&gt;" style="rounded=1;strokeColor=none;fillColor=#EEEEEE;align=center;arcSize=12;verticalAlign=top;whiteSpace=wrap;html=1;fontSize=12;" parent="1" vertex="1">
          <mxGeometry x="375" y="470" width="160" height="70" as="geometry" />
        </mxCell>
        <mxCell id="40lD1EmkbBOR3VWzuAHx-41" value="&lt;font style=&quot;font-size: 10px&quot;&gt;&lt;font style=&quot;font-size: 12px&quot; color=&quot;#56517E&quot;&gt;&lt;b&gt;Label&lt;/b&gt;&lt;/font&gt;&lt;br&gt;&lt;br&gt;&lt;font size=&quot;1&quot;&gt;Lorem ipsum dolor sit amet, consectetur adipisicing elit&lt;/font&gt;&lt;/font&gt;" style="rounded=1;strokeColor=none;fillColor=#EEEEEE;align=center;arcSize=12;verticalAlign=top;whiteSpace=wrap;html=1;fontSize=12;" parent="1" vertex="1">
          <mxGeometry x="555" y="540" width="160" height="70" as="geometry" />
        </mxCell>
        <mxCell id="40lD1EmkbBOR3VWzuAHx-42" value="" style="endArrow=none;html=1;strokeWidth=3;strokeColor=#CCCCCC;labelBackgroundColor=none;fontSize=16;rounded=0;" parent="1" source="40lD1EmkbBOR3VWzuAHx-43" target="40lD1EmkbBOR3VWzuAHx-44" edge="1">
          <mxGeometry relative="1" as="geometry" />
        </mxCell>
        <mxCell id="40lD1EmkbBOR3VWzuAHx-43" value="" style="ellipse;whiteSpace=wrap;html=1;aspect=fixed;shadow=0;fillColor=none;strokeColor=#333333;fontSize=16;align=center;strokeWidth=2;" parent="1" vertex="1">
          <mxGeometry x="539" y="120" width="12" height="12" as="geometry" />
        </mxCell>
        <mxCell id="40lD1EmkbBOR3VWzuAHx-44" value="" style="ellipse;whiteSpace=wrap;html=1;aspect=fixed;shadow=0;fillColor=none;strokeColor=#333333;fontSize=16;align=center;strokeWidth=2;" parent="1" vertex="1">
          <mxGeometry x="539" y="618" width="12" height="12" as="geometry" />
        </mxCell>
        <mxCell id="40lD1EmkbBOR3VWzuAHx-45" value="" style="verticalLabelPosition=middle;verticalAlign=middle;html=1;shape=mxgraph.infographic.circularCallout2;dy=15;strokeColor=#10739E;labelPosition=center;align=center;fontColor=#10739E;fontStyle=1;fontSize=24;shadow=0;direction=north;" parent="1" vertex="1">
          <mxGeometry x="305" y="150" width="246" height="60" as="geometry" />
        </mxCell>
        <mxCell id="40lD1EmkbBOR3VWzuAHx-46" value="" style="verticalLabelPosition=middle;verticalAlign=middle;html=1;shape=mxgraph.infographic.circularCallout2;dy=15;strokeColor=#F2931E;labelPosition=center;align=center;fontColor=#F2931E;fontStyle=1;fontSize=24;shadow=0;direction=north;flipH=1;" parent="1" vertex="1">
          <mxGeometry x="539" y="220" width="246" height="60" as="geometry" />
        </mxCell>
        <mxCell id="40lD1EmkbBOR3VWzuAHx-47" value="" style="verticalLabelPosition=middle;verticalAlign=middle;html=1;shape=mxgraph.infographic.circularCallout2;dy=15;strokeColor=#AE4132;labelPosition=center;align=center;fontColor=#10739E;fontStyle=1;fontSize=24;shadow=0;direction=north;" parent="1" vertex="1">
          <mxGeometry x="305" y="290" width="246" height="60" as="geometry" />
        </mxCell>
        <mxCell id="40lD1EmkbBOR3VWzuAHx-48" value="" style="verticalLabelPosition=middle;verticalAlign=middle;html=1;shape=mxgraph.infographic.circularCallout2;dy=15;strokeColor=#23445D;labelPosition=center;align=center;fontColor=#10739E;fontStyle=1;fontSize=24;shadow=0;direction=north;flipH=1;" parent="1" vertex="1">
          <mxGeometry x="539" y="360" width="246" height="60" as="geometry" />
        </mxCell>
        <mxCell id="40lD1EmkbBOR3VWzuAHx-49" value="" style="verticalLabelPosition=middle;verticalAlign=middle;html=1;shape=mxgraph.infographic.circularCallout2;dy=15;strokeColor=#12AAB5;labelPosition=center;align=center;fontColor=#10739E;fontStyle=1;fontSize=24;shadow=0;direction=north;" parent="1" vertex="1">
          <mxGeometry x="305" y="430" width="246" height="60" as="geometry" />
        </mxCell>
        <mxCell id="40lD1EmkbBOR3VWzuAHx-50" value="" style="verticalLabelPosition=middle;verticalAlign=middle;html=1;shape=mxgraph.infographic.circularCallout2;dy=15;strokeColor=#56517E;labelPosition=center;align=center;fontColor=#10739E;fontStyle=1;fontSize=24;shadow=0;direction=north;flipH=1;" parent="1" vertex="1">
          <mxGeometry x="539" y="500" width="246" height="60" as="geometry" />
        </mxCell>
        <mxCell id="40lD1EmkbBOR3VWzuAHx-51" value="Mask creation" style="fillColor=#10739E;strokecolor=none;rounded=1;fontColor=#FFFFFF;strokeColor=none;fontStyle=1;fontSize=14;whiteSpace=wrap;html=1;" parent="1" vertex="1">
          <mxGeometry x="375" y="140" width="160" height="30" as="geometry" />
        </mxCell>
        <mxCell id="40lD1EmkbBOR3VWzuAHx-52" value="Image augmentation" style="fillColor=#F2931E;strokecolor=none;rounded=1;fontColor=#FFFFFF;strokeColor=none;fontStyle=1;fontSize=14;whiteSpace=wrap;html=1;" parent="1" vertex="1">
          <mxGeometry x="555" y="205" width="160" height="30" as="geometry" />
        </mxCell>
        <mxCell id="40lD1EmkbBOR3VWzuAHx-53" value="Image classification" style="fillColor=#AE4132;strokecolor=none;rounded=1;fontColor=#FFFFFF;strokeColor=none;fontStyle=1;fontSize=14;whiteSpace=wrap;html=1;" parent="1" vertex="1">
          <mxGeometry x="375" y="280" width="160" height="30" as="geometry" />
        </mxCell>
        <mxCell id="40lD1EmkbBOR3VWzuAHx-54" value="Model training&amp;nbsp;" style="fillColor=#23445D;strokecolor=none;rounded=1;fontColor=#FFFFFF;strokeColor=none;fontStyle=1;fontSize=14;whiteSpace=wrap;html=1;" parent="1" vertex="1">
          <mxGeometry x="555" y="345" width="160" height="30" as="geometry" />
        </mxCell>
        <mxCell id="40lD1EmkbBOR3VWzuAHx-55" value="Model validation" style="fillColor=#12AAB5;strokecolor=none;rounded=1;fontColor=#FFFFFF;strokeColor=none;fontStyle=1;fontSize=14;whiteSpace=wrap;html=1;" parent="1" vertex="1">
          <mxGeometry x="375" y="420" width="160" height="30" as="geometry" />
        </mxCell>
        <mxCell id="40lD1EmkbBOR3VWzuAHx-56" value="Multi-model testing" style="fillColor=#56517E;strokecolor=none;rounded=1;fontColor=#FFFFFF;strokeColor=none;fontStyle=1;fontSize=14;whiteSpace=wrap;html=1;" parent="1" vertex="1">
          <mxGeometry x="555" y="485" width="160" height="30" as="geometry" />
        </mxCell>
        <mxCell id="40lD1EmkbBOR3VWzuAHx-57" value="&lt;font style=&quot;&quot;&gt;&lt;font color=&quot;#10739e&quot;&gt;&lt;b&gt;Creating new masks&lt;/b&gt;&lt;/font&gt;&lt;br&gt;&lt;br&gt;&lt;font style=&quot;font-size: 10px;&quot; size=&quot;1&quot;&gt;We can use U-net model to create new masks&lt;/font&gt;&lt;/font&gt;" style="rounded=1;strokeColor=none;fillColor=#EEEEEE;align=center;arcSize=12;verticalAlign=top;whiteSpace=wrap;html=1;fontSize=12;" parent="1" vertex="1">
          <mxGeometry x="375" y="190" width="160" height="70" as="geometry" />
        </mxCell>
        <mxCell id="40lD1EmkbBOR3VWzuAHx-58" value="&lt;font style=&quot;&quot;&gt;&lt;font style=&quot;font-size: 12px;&quot; color=&quot;#F2931E&quot;&gt;&lt;b&gt;Balancing datasets&lt;/b&gt;&lt;/font&gt;&lt;br&gt;&lt;br&gt;&lt;font size=&quot;1&quot;&gt;Create more images for VP, Covid, and LO&lt;/font&gt;&lt;/font&gt;" style="rounded=1;strokeColor=none;fillColor=#EEEEEE;align=center;arcSize=12;verticalAlign=top;whiteSpace=wrap;html=1;fontSize=12;" parent="1" vertex="1">
          <mxGeometry x="555" y="260" width="160" height="70" as="geometry" />
        </mxCell>
        <mxCell id="40lD1EmkbBOR3VWzuAHx-59" value="&lt;font style=&quot;&quot;&gt;&lt;font color=&quot;#ae4132&quot;&gt;&lt;b&gt;Classifying Lung area&lt;/b&gt;&lt;/font&gt;&lt;/font&gt;&lt;div&gt;&lt;font style=&quot;&quot;&gt;&lt;font color=&quot;#ae4132&quot;&gt;&lt;b&gt;&lt;br&gt;&lt;/b&gt;&lt;/font&gt;&lt;/font&gt;&lt;div&gt;&lt;font style=&quot;font-size: 10px&quot;&gt;&lt;font size=&quot;1&quot;&gt;Custom CNN, ResNet, EfficientNet, VGG16/VGG19&lt;/font&gt;&lt;/font&gt;&lt;/div&gt;&lt;/div&gt;" style="rounded=1;strokeColor=none;fillColor=#EEEEEE;align=center;arcSize=12;verticalAlign=top;whiteSpace=wrap;html=1;fontSize=12;" parent="1" vertex="1">
          <mxGeometry x="375" y="330" width="160" height="70" as="geometry" />
        </mxCell>
        <mxCell id="40lD1EmkbBOR3VWzuAHx-60" value="&lt;font style=&quot;&quot;&gt;&lt;font style=&quot;font-size: 12px;&quot; color=&quot;#23445D&quot;&gt;&lt;b&gt;Supervised models&lt;/b&gt;&lt;/font&gt;&lt;br&gt;&lt;br&gt;&lt;font size=&quot;1&quot;&gt;CNN, CapsNet, and Transfer Learning using ImageNet&lt;/font&gt;&lt;/font&gt;" style="rounded=1;strokeColor=none;fillColor=#EEEEEE;align=center;arcSize=12;verticalAlign=top;whiteSpace=wrap;html=1;fontSize=12;" parent="1" vertex="1">
          <mxGeometry x="555" y="400" width="160" height="70" as="geometry" />
        </mxCell>
        <mxCell id="40lD1EmkbBOR3VWzuAHx-61" value="&lt;font style=&quot;&quot;&gt;&lt;font color=&quot;#12aab5&quot;&gt;&lt;b&gt;Target performance&lt;/b&gt;&lt;/font&gt;&lt;br&gt;&lt;br&gt;&lt;span style=&quot;font-size: 10px;&quot;&gt;Metrics: Accuracy, Recall, ...&lt;/span&gt;&lt;/font&gt;" style="rounded=1;strokeColor=none;fillColor=#EEEEEE;align=center;arcSize=12;verticalAlign=top;whiteSpace=wrap;html=1;fontSize=12;" parent="1" vertex="1">
          <mxGeometry x="375" y="470" width="160" height="70" as="geometry" />
        </mxCell>
        <mxCell id="40lD1EmkbBOR3VWzuAHx-62" value="&lt;font style=&quot;font-size: 10px&quot;&gt;&lt;font style=&quot;font-size: 12px;&quot; color=&quot;#56517E&quot;&gt;&lt;b&gt;Trying different models&lt;/b&gt;&lt;/font&gt;&lt;br&gt;&lt;br&gt;&lt;span style=&quot;font-size: x-small;&quot;&gt;CNN with XGBoost/CatBoost/RF&lt;/span&gt;&lt;/font&gt;" style="rounded=1;strokeColor=none;fillColor=#EEEEEE;align=center;arcSize=12;verticalAlign=top;whiteSpace=wrap;html=1;fontSize=12;" parent="1" vertex="1">
          <mxGeometry x="555" y="540" width="160" height="70" as="geometry" />
        </mxCell>
        <mxCell id="40lD1EmkbBOR3VWzuAHx-65" value="March 8th, 2025" style="text;html=1;align=center;verticalAlign=middle;whiteSpace=wrap;rounded=0;fontStyle=1;fontSize=15;" parent="1" vertex="1">
          <mxGeometry x="480" y="70" width="130" height="30" as="geometry" />
        </mxCell>
        <mxCell id="40lD1EmkbBOR3VWzuAHx-66" value="April 15th, 2025" style="text;html=1;align=center;verticalAlign=middle;whiteSpace=wrap;rounded=0;fontStyle=1;fontSize=15;" parent="1" vertex="1">
          <mxGeometry x="480" y="640" width="130" height="30" as="geometry" />
        </mxCell>
        <mxCell id="40lD1EmkbBOR3VWzuAHx-67" value="March 19th, 2025" style="text;html=1;align=center;verticalAlign=middle;whiteSpace=wrap;rounded=0;fontStyle=1;fontSize=15;" parent="1" vertex="1">
          <mxGeometry x="165" y="165" width="130" height="30" as="geometry" />
        </mxCell>
        <mxCell id="40lD1EmkbBOR3VWzuAHx-68" value="March 21st, 2025" style="text;html=1;align=center;verticalAlign=middle;whiteSpace=wrap;rounded=0;fontStyle=1;fontSize=15;" parent="1" vertex="1">
          <mxGeometry x="795" y="235" width="130" height="30" as="geometry" />
        </mxCell>
        <mxCell id="40lD1EmkbBOR3VWzuAHx-69" value="March 22nd, 2025" style="text;html=1;align=center;verticalAlign=middle;whiteSpace=wrap;rounded=0;fontStyle=1;fontSize=15;" parent="1" vertex="1">
          <mxGeometry x="165" y="305" width="130" height="30" as="geometry" />
        </mxCell>
        <mxCell id="40lD1EmkbBOR3VWzuAHx-70" value="March 30th, 2025" style="text;html=1;align=center;verticalAlign=middle;whiteSpace=wrap;rounded=0;fontStyle=1;fontSize=15;" parent="1" vertex="1">
          <mxGeometry x="805" y="375" width="130" height="30" as="geometry" />
        </mxCell>
        <mxCell id="40lD1EmkbBOR3VWzuAHx-71" value="April 5th, 2025" style="text;html=1;align=center;verticalAlign=middle;whiteSpace=wrap;rounded=0;fontStyle=1;fontSize=15;" parent="1" vertex="1">
          <mxGeometry x="165" y="445" width="130" height="30" as="geometry" />
        </mxCell>
        <mxCell id="40lD1EmkbBOR3VWzuAHx-72" value="April 12th, 2025" style="text;html=1;align=center;verticalAlign=middle;whiteSpace=wrap;rounded=0;fontStyle=1;fontSize=15;" parent="1" vertex="1">
          <mxGeometry x="795" y="515" width="130" height="30" as="geometry" />
        </mxCell>
        <mxCell id="40lD1EmkbBOR3VWzuAHx-73" value="&lt;font style=&quot;&quot;&gt;&lt;br&gt;&lt;span style=&quot;font-size: 10px;&quot;&gt;Have a meeting to go through the open points/updates&lt;/span&gt;&lt;/font&gt;" style="rounded=1;strokeColor=none;fillColor=#EEEEEE;align=center;arcSize=12;verticalAlign=top;whiteSpace=wrap;html=1;fontSize=12;" parent="1" vertex="1">
          <mxGeometry x="465" y="710" width="160" height="70" as="geometry" />
        </mxCell>
        <mxCell id="40lD1EmkbBOR3VWzuAHx-74" value="Report review" style="fillColor=#76608a;strokecolor=none;rounded=1;fontColor=#ffffff;strokeColor=#432D57;fontStyle=1;fontSize=14;whiteSpace=wrap;html=1;" parent="1" vertex="1">
          <mxGeometry x="465" y="670" width="160" height="30" as="geometry" />
        </mxCell>
      </root>
    </mxGraphModel>
  </diagram>
</mxfile>
